<svg width="512" height="512" xmlns="http://www.w3.org/2000/svg">

 <g>
  <title>background</title>
  <rect fill="none" id="canvas_background" height="402" width="582" y="-1" x="-1"/>
 </g>
 <g>
  <title>Layer 1</title>
  <path stroke="null" fill="#7f7f7f" id="svg_1" d="m496.585706,429.590368l-173.211126,-173.118678l173.211126,-173.118678c18.700436,-18.690455 18.700436,-48.780761 0,-67.471215c-18.700436,-18.690455 -48.80681,-18.690455 -67.507246,0l-173.211126,173.118678l-173.211126,-173.118678c-18.700436,-18.690455 -48.80681,-18.690455 -67.507246,0c-18.700436,18.690455 -18.700436,48.780761 0,67.471215l173.211126,173.118678l-173.211126,173.118678c-18.700436,18.690455 -18.700436,48.780761 0,67.471215c18.700436,18.690455 48.80681,18.690455 67.507246,0l173.211126,-173.118678l173.211126,173.118678c18.700436,18.690455 48.80681,18.690455 67.507246,0c18.567808,-18.690455 18.567808,-48.913317 0,-67.471215z"/>
 </g>
</svg>